# File created by Blade
# Date/Time:  Wed Jan 21 17:10:37 2015
# Frame Rate: 120.000 fps
#------------------------------------------------------
:FULLY-SPECIFIED
:DEGREES
899
root 19.758674 3.292244 -11.627059 -235.187961 4.235601 -185.003758
Spine 63.980211 5.238444 -9.638988
Head -12.409887 -10.620250 4.466840
LeftShoulder 11.344055 -29.448839 -15.323986
LeftArm 17.932149 29.166421 -65.997713
LeftForeArm -68.983886 -0.000000 101.052844
LeftHand -2.866964 -0.000000 0.877553
LeftHandThumb1 -26.253704 0.000000 33.147579
RightShoulder 8.295612 8.218448 -20.039908
RightArm 68.026103 6.393369 4.557940
RightForeArm -8.489054 -0.000000 109.885063
RightHand -16.547056 -0.000000 -1.527412
RightHandThumb1 -24.326973 -0.000000 -32.862282
LeftUpLeg -36.986961 32.933550 -4.145874
LeftLeg -1.076688 -0.000000 0.000000
LeftFoot 19.328178 34.998746 -0.568919
LeftToeBase 18.292169 -0.000000 -0.000000
RightUpLeg -112.999204 14.961992 80.123142
RightLeg 120.009229 -0.000000 -0.000000
RightFoot 26.478557 -39.348815 -9.917913
RightToeBase 15.312161 -0.000000 -0.000000
900
root 19.761445 3.295573 -11.630502 -235.220600 4.207561 -184.982406
Spine 64.000362 5.209345 -9.630379
Head -12.293438 -10.630169 4.428736
LeftShoulder 11.336865 -29.424854 -15.326353
LeftArm 17.932039 29.133265 -65.992285
LeftForeArm -68.923271 0.000000 101.037688
LeftHand -2.887344 0.000000 0.805253
LeftHandThumb1 -26.253704 0.000000 33.147579
RightShoulder 8.291669 8.188991 -20.034612
RightArm 68.079584 6.388304 4.560744
RightForeArm -8.610780 -0.000000 109.876424
RightHand -16.500883 -0.000000 -1.503901
RightHandThumb1 -24.326973 -0.000000 -32.862282
LeftUpLeg -36.934807 32.906439 -4.123272
LeftLeg -1.082380 -0.000000 0.000000
LeftFoot 19.312641 35.011469 -0.576008
LeftToeBase 18.291460 -0.000000 -0.000000
RightUpLeg -113.046934 14.935511 80.231262
RightLeg 120.235646 -0.000000 -0.000000
RightFoot 28.447684 -38.769389 -9.934051
RightToeBase 16.074024 -0.000000 -0.000000
901
root 19.764456 3.298509 -11.632989 -235.249365 4.178797 -184.966674
Spine 64.019427 5.194139 -9.613707
Head -12.187556 -10.645357 4.404498
LeftShoulder 11.345031 -29.414514 -15.335514
LeftArm 17.907644 29.124899 -65.988738
LeftForeArm -68.854587 0.000000 101.037265
LeftHand -2.912840 0.000000 0.789801
LeftHandThumb1 -26.253704 0.000000 33.147579
RightShoulder 8.296844 8.233254 -20.003969
RightArm 68.104238 6.331447 4.506510
RightForeArm -8.623746 -0.000000 109.868014
RightHand -16.440629 -0.000000 -1.516363
RightHandThumb1 -24.326973 -0.000000 -32.862282
LeftUpLeg -36.894034 32.887001 -4.115708
LeftLeg -1.084360 -0.000000 0.000000
LeftFoot 19.313165 35.023079 -0.558718
LeftToeBase 18.236158 -0.000000 -0.000000
RightUpLeg -113.066677 14.944021 80.395824
RightLeg 120.420357 -0.000000 -0.000000
RightFoot 30.305634 -38.333236 -10.082495
RightToeBase 16.886071 -0.000000 -0.000000
902
root 19.766469 3.300990 -11.635174 -235.281325 4.147747 -184.947409
Spine 64.047167 5.162584 -9.609037
Head -12.097823 -10.657032 4.375526
LeftShoulder 11.311116 -29.396723 -15.323034
LeftArm 17.918675 29.111605 -66.004471
LeftForeArm -68.669522 0.000000 100.963896
LeftHand -2.923813 -0.000000 0.589474
LeftHandThumb1 -26.253704 0.000000 33.147579
RightShoulder 8.318478 8.224672 -19.993364
RightArm 68.130957 6.334890 4.434994
RightForeArm -8.621818 -0.000000 109.871966
RightHand -16.423196 0.000000 -1.547764
RightHandThumb1 -24.326973 -0.000000 -32.862282
LeftUpLeg -36.848585 32.857399 -4.102701
LeftLeg -1.084152 -0.000000 0.000000
LeftFoot 19.289382 35.040825 -0.568511
LeftToeBase 18.244593 -0.000000 -0.000000
RightUpLeg -113.090342 14.936262 80.531755
RightLeg 120.632177 -0.000000 -0.000000
RightFoot 31.803321 -37.760121 -10.087237
RightToeBase 17.625430 -0.000000 -0.000000
903
root 19.767795 3.303038 -11.638002 -235.312776 4.108910 -184.922597
Spine 64.080781 5.153291 -9.535702
Head -12.018201 -10.722180 4.344067
LeftShoulder 11.370454 -29.381458 -15.371199
LeftArm 17.876341 29.151338 -65.988487
LeftForeArm -68.826564 0.000000 101.005308
LeftHand -2.904386 -0.000000 0.678984
LeftHandThumb1 -26.253704 0.000000 33.147579
RightShoulder 8.271814 8.218949 -19.994367
RightArm 68.163919 6.302314 4.359116
RightForeArm -8.614366 0.000000 109.873584
RightHand -16.355839 -0.000000 -1.619502
RightHandThumb1 -24.326973 -0.000000 -32.862282
LeftUpLeg -36.801334 32.816349 -4.091768
LeftLeg -1.084206 -0.000000 0.000000
LeftFoot 19.251723 35.043944 -0.576768
LeftToeBase 18.278278 -0.000000 -0.000000
RightUpLeg -113.135641 14.919450 80.624961
RightLeg 120.868211 -0.000000 -0.000000
RightFoot 33.038730 -36.999022 -10.112185
RightToeBase 18.515150 -0.000000 -0.000000
904
root 19.770114 3.305455 -11.639395 -235.348414 4.072077 -184.900472
Spine 64.113925 5.105522 -9.549993
Head -11.938391 -10.690495 4.303589
LeftShoulder 11.322525 -29.394228 -15.369092
LeftArm 17.836950 29.166202 -65.982836
LeftForeArm -68.833972 -0.000000 101.000149
LeftHand -2.902827 0.000000 0.601538
LeftHandThumb1 -26.253704 0.000000 33.147579
RightShoulder 8.314433 8.203534 -20.006590
RightArm 68.217568 6.309562 4.314455
RightForeArm -8.610483 0.000000 109.873652
RightHand -16.312990 -0.000000 -1.625497
RightHandThumb1 -24.326973 -0.000000 -32.862282
LeftUpLeg -36.746756 32.775555 -4.071272
LeftLeg -1.079577 -0.000000 0.000000
LeftFoot 19.219497 35.035556 -0.621603
LeftToeBase 18.265907 -0.000000 -0.000000
RightUpLeg -113.154803 14.908347 80.736841
RightLeg 121.087114 -0.000000 -0.000000
RightFoot 33.996823 -36.272089 -10.200264
RightToeBase 19.504100 -0.000000 -0.000000
905
root 19.771629 3.307450 -11.639494 -235.379366 4.046017 -184.879159
Spine 64.151106 5.070604 -9.539618
Head -11.879507 -10.661106 4.275808
LeftShoulder 11.283063 -29.399137 -15.367643
LeftArm 17.799628 29.175713 -65.980814
LeftForeArm -68.789547 -0.000000 101.038005
LeftHand -2.911903 0.000000 0.759218
LeftHandThumb1 -26.253704 0.000000 33.147579
RightShoulder 8.348484 8.236228 -20.017641
RightArm 68.260890 6.258283 4.290307
RightForeArm -8.612118 -0.000000 109.895363
RightHand -16.238592 -0.000000 -1.621820
RightHandThumb1 -24.326973 -0.000000 -32.862282
LeftUpLeg -36.704882 32.745157 -4.055976
LeftLeg -1.077472 -0.000000 0.000000
LeftFoot 19.203742 35.020249 -0.615750
LeftToeBase 18.289418 -0.000000 -0.000000
RightUpLeg -113.174096 14.899569 80.873107
RightLeg 121.319493 -0.000000 -0.000000
RightFoot 34.699387 -35.656267 -10.246574
RightToeBase 20.104131 -0.000000 -0.000000
906
root 19.772688 3.309340 -11.639289 -235.410820 4.016480 -184.859802
Spine 64.191965 5.054559 -9.487147
Head -11.827524 -10.683416 4.248434
LeftShoulder 11.279721 -29.385652 -15.397889
LeftArm 17.810756 29.217514 -65.944438
LeftForeArm -68.724170 0.000000 101.039930
LeftHand -2.906828 -0.000000 0.761525
LeftHandThumb1 -26.253704 0.000000 33.147579
RightShoulder 8.353535 8.214374 -20.041619
RightArm 68.305436 6.238223 4.299376
RightForeArm -8.707497 -0.000000 109.942853
RightHand -16.221246 0.000000 -1.541546
RightHandThumb1 -24.326973 -0.000000 -32.862282
LeftUpLeg -36.661271 32.715638 -4.045128
LeftLeg -1.075949 -0.000000 0.000000
LeftFoot 19.180141 34.990631 -0.629742
LeftToeBase 18.304465 -0.000000 -0.000000
RightUpLeg -113.184274 14.888634 80.987613
RightLeg 121.518267 -0.000000 -0.000000
RightFoot 35.220870 -35.043547 -10.290475
RightToeBase 20.719038 -0.000000 -0.000000
